<?xml version="1.0" encoding="utf-8"?>
<!-- Uploaded to: SVG Repo, www.svgrepo.com, Generator: SVG Repo Mixer Tools -->
<svg width="800px" height="800px" viewBox="0 -59 1142 1142" fill="#000000" class="icon"  version="1.1" xmlns="http://www.w3.org/2000/svg"><path d="M99.045297 84.174473h944.577877c23.288271 0 42.087236-18.798966 42.087236-42.087237s-18.798966-42.087236-42.087236-42.087236H99.045297c-23.288271 0-42.087236 18.798966-42.087237 42.087236s18.798966 42.087236 42.087237 42.087237zM67.479869 848.198106l44.612471-33.81008c7.295121-2.384943 13.608206-6.593667 18.378093-12.205299 12.626171-5.190759 27.496995-3.787851 38.720258 4.769887l41.666364 31.565428a123.946911 123.946911 0 0 0 149.129108 0l41.666364-31.565428c14.029079-10.6621 33.529498-10.6621 47.418286 0L491.017759 838.658332a123.175312 123.175312 0 0 0 74.634699 24.971761c26.374668 0 52.609046-8.277157 74.6347-24.971761l41.666364-31.565427a39.562002 39.562002 0 0 1 47.418286 0l41.666364 31.565427a123.946911 123.946911 0 0 0 149.129108 0l41.666364-31.565427c14.029079-10.6621 33.529498-10.521809 47.418287 0l41.666364 31.705718c10.802391 8.136866 22.867398 14.449951 35.63386 18.798966a42.087236 42.087236 0 0 0 53.170209-26.65525 42.087236 42.087236 0 0 0-26.65525-53.170209c-4.068433-1.402908-7.996575-3.366979-11.363554-6.032504l-16.554313-12.48588a510.49012 510.49012 0 0 0-86.138544-269.498604V168.769818c0-23.288271-18.798966-42.087236-42.087236-42.087236s-42.087236 18.798966-42.087237 42.087236v223.623517a513.913216 513.913216 0 0 0-116.160772-78.843423V168.769818c0-23.288271-18.798966-42.087236-42.087237-42.087236s-42.087236 18.798966-42.087236 42.087236v111.952049c-32.547463-9.539774-66.497834-15.852859-101.289949-18.658674v-93.293375c0-23.288271-18.798966-42.087236-42.087237-42.087236s-42.087236 18.798966-42.087236 42.087236v93.293375c-33.389208 2.665525-65.79638 8.557738-96.940935 17.396057v-110.689432c0-23.288271-18.798966-42.087236-42.087237-42.087236s-42.087236 18.798966-42.087236 42.087236v142.535441a518.72519 518.72519 0 0 0-116.160773 77.300225V168.769818c0-23.288271-18.798966-42.087236-42.087236-42.087236s-42.087236 18.798966-42.087237 42.087236v314.391657A512.089435 512.089435 0 0 0 57.519223 750.134845l-40.824619 31.004264c-18.518384 14.029079-22.165945 40.403747-8.136866 58.922131a41.806655 41.806655 0 0 0 58.922131 8.136866z m503.784221-503.784221c217.310431 0 397.303512 161.89557 426.063124 371.490008-30.162519-2.946107-61.166784 4.910178-86.419126 23.989724L869.382015 771.599336c-14.029079 10.6621-33.529498 10.6621-47.418286 0l-41.666365-31.565428a123.526039 123.526039 0 0 0-149.129108 0L589.361602 771.599336c-13.888788 10.521809-33.529498 10.521809-47.418287 0l-41.666364-31.565428a123.946911 123.946911 0 0 0-149.129108 0L309.341188 771.599336c-14.029079 10.6621-33.529498 10.521809-47.418286 0l-41.666364-31.565428a123.97497 123.97497 0 0 0-74.915281-24.97176c29.180484-209.173565 209.033275-370.648263 425.922833-370.648263zM1113.207405 937.98421c-4.068433-1.402908-7.856284-3.366979-11.363554-6.032503l-41.666364-31.565428a123.526039 123.526039 0 0 0-149.129108 0l-41.666364 31.565428c-14.029079 10.6621-33.529498 10.6621-47.418286 0l-41.666365-31.565428a123.526039 123.526039 0 0 0-149.129108 0l-41.666364 31.565428c-13.888788 10.521809-33.529498 10.521809-47.418286 0l-41.666364-31.565428c-43.911017-33.248917-105.218091-33.389208-149.129108 0l-41.666364 31.565428c-14.029079 10.6621-33.529498 10.6621-47.418287 0l-41.666364-31.565428c-43.911017-33.248917-105.218091-33.389208-149.129108 0l-54.432826 41.245492a42.059178 42.059178 0 1 0 50.785266 67.058997l54.432826-41.245492c13.888788-10.521809 33.389208-10.6621 47.418286 0l41.666364 31.565427a123.946911 123.946911 0 0 0 149.129108 0l41.666364-31.565427c14.029079-10.521809 33.529498-10.521809 47.418287 0L491.017759 999.010703a123.175312 123.175312 0 0 0 74.634699 24.971761c26.374668 0 52.609046-8.277157 74.6347-24.971761l41.666364-31.565427c14.029079-10.521809 33.529498-10.6621 47.418286 0l41.666364 31.565427c43.911017 33.389208 105.218091 33.248917 149.129108 0l41.666364-31.565427c14.029079-10.521809 33.529498-10.6621 47.418287 0l41.666364 31.565427c10.802391 8.136866 22.867398 14.590242 35.63386 18.798966a42.087236 42.087236 0 0 0 53.170209-26.65525c7.435412-22.025654-4.489305-45.875088-26.514959-53.170209z" /></svg>